<svg xmlns="http://www.w3.org/2000/svg" width="77" height="77" viewBox="0 0 77 77">
    <g fill="none" fill-rule="evenodd">
        <path fill="#F9F7F7" d="M0 0h77v77H0z"/>
        <g fill-rule="nonzero" opacity=".5" style="mix-blend-mode:luminosity">
            <path fill="#231F20" d="M38.915 3.5l-.024.024L3.863 38.44l35.052 34.941 35.052-34.941z"/>
            <path fill="#FFF" d="M39.095 19.59l20.359 20.295-20.36 20.294-20.358-20.294L39.095 19.59z"/>
            <path fill="#FFF" d="M38.866 4.5L4.782 38.474l34.084 33.976L72.95 38.475 38.866 4.5zM5.661 38.474l33.205-33.1 33.206 33.1-33.206 33.1-33.205-33.1z"/>
            <path fill="#231F20" d="M39.39 26.914c-.482-.154-1.809.44-2.002-.077-.364.095-.865.517-1.173.805l-.154 4.335c0 1.036.231 2.743.635 3.568-.654.843-2.367 6.809-2.848 7.978-.577 1.304-.557 2.225-.904 2.59-.655-.96-1.097-.94-1.385-.69 0 2.281 1.135 3.145 2.078 3.144.846-1.668 2.424-8.784 3.232-9.513.347-.326 1.616-2.454 1.616-.153-.058-.02 2.809 7.825 3.155 8.458.386.04.25.902.847 1.707.828-.383 1.232-.556 1.309-1.132-.346-2.051-.77-3.51-1.578-1.897-.924-2.552-2.328-6.024-3.021-8.805-.116-.844-.154-1.668-.096-2.378.539-1.803.674-6.867.29-7.94zM39.024 25.13c.539-2.169-.634-1.44-1.174-.978a1.17 1.17 0 0 1-.287.248c-.097.403.038.672-.29.73-.308 1.515.692 1.668 1.482 1.534.307-.345.25-1.304.27-1.535z"/>
            <path fill="#231F20" d="M35.331 35.233c-3.365.131-6.73.249-10.082.366.392 1.423.157 4.034.249 6.213 1.532 2.27 3.064 4.542 4.596 6.826.091.209.196.431.3.653.368.196.734.391 1.114.587-.223-.47-.432-.94-.642-1.397-.17-.182-.34-.352-.498-.521-.274-.406-.55-.81-.824-1.201.183-1.58.38-3.146.576-4.712.236-.026.485-.066.733-.105.63.757 1.44 1.906 1.703 1.841.104-.157.21-.326.314-.496-.511-.404-1.192-.85-1.296-1.423.89 0 1.793-.013 2.71-.013l-.04-.6c-.93-.04-2.121-.092-2.71-.078-.445-1.801-.366-3.473-.575-5.326.772-.13 1.597-.196 2.435-.104.078 1.75.157 3.511.248 5.273.184-.118.38-.222.59-.314-.263-1.461-.302-3.197-.302-4.973.433 0 .864 0 1.31.014.026-.17.052-.34.091-.51zm-7.528.731c.052.51.04 1.058-.014 1.658a19.427 19.427 0 0 1-1.466-1.605c.577-.013.327-.235 1.48-.053zm-1.375 5.548c-.08-.013-.21-.092-.328-.079-.013-.326-.065-.704-.079-1.017.001-.288-.104-.718-.156-1.058.013-.391-.026-.77.04-1.11.051-.312-.054-.69.038-1.122.223-.574-.052-.887.615.079.21-.092.446-.014.59.94-.262.809-.04 1.083-.235 1.462-.079.69-.052 1.252-.158 1.761-.118.144-.25.156-.327.144zm2.605 4.372c-.563-.783-1.139-1.709-1.7-2.532-.382-.43-.473-.953-.762-1.122.132-.17.354-.065.93-.157a5.942 5.942 0 0 1 1.978.013c-.105 1.449-.236 2.754-.446 3.798zm.76-4.45c-.394.156-1.14.117-1.335-.014 0 .236-.72.079-.93.104.091-.195-.08-.117-.053-.43.04-.222 0-1.175.105-1.736-.17-.756.078-.6.13-.73.08.065.093.09.21.156.08.574.014.901.144 2.415.158.012.34-.04.42-.04l-.053-.482c-.013-.301.014-.745-.04-1.123.905.43.891 1.083 1.323 1.175.053.065.144.195.183.457-.117.3-.026.104-.104.247zm-1.545-3.355c.222-.783-.04-1.331.275-2.14a5.3 5.3 0 0 1 2.029-.014c.157 1.985.275 3.773.288 5.234-.864-.991-1.755-2.075-2.592-3.08zM52.706 40.742l-.655-5.965c-3.836.065-7.686.104-11.535.143l.118.392.589.117.236 5.548-.51.156.156.496 5.931-.117-1.976 2.727c.117 2.598.314 5.026 1.02 7.27l1.663-2.688.603-.039c1.02-2.284 2.46-4.542 4.386-6.749l-.026-1.291zm-10.775.09c-.08-1.774-.158-3.563-.224-5.364.642-.3 1.362-.26 2.24-.13.288 2.454.288 5.142.405 5.652-.824-.053-2.408.143-2.421-.157zm2.893.105c-.157-1.88-.301-3.746-.445-5.612a6.089 6.089 0 0 1 2.382-.026c-.104 1.918 0 3.785.249 5.599l-2.186.039zm6.468-5.69c-.302.496-.642 1.03-1.022 1.566-.078-.287-.156-.561-.078-.94-.091-.209-.117-.496-.117-.679.746-.026.785.04 1.217.053zm-1.296 4.881c.13.222.196.509.222.705-.746.078-.786.013-1.217.039.222-1.018.667-1.54.955-1.997.066.392.131.758.04 1.253zm-.366-4.907c.104.965.183 1.84.182 2.558-.667 1.161-1.335 2.01-1.964 2.988-.785-.378-.654-3.484-.694-5.442a7.124 7.124 0 0 1 2.476-.104zm-3.118 14.878c-.052-.025-.209-.078-.209-.091-.078-1.879-.628-3.68-.523-5.742.366-.6.772-1.045 1.138-1.397-.13-.365.59-.26.59-.26-.026-.419.471-.406.471-.327-.013.717.078 1.54.078 1.54.224.887.394 1.709.512 2.466-.576 1.201-1.232 2.233-2.057 3.811zm3.523-6.055c.144-.157.052 1.135-.734 1.71-.249-.432.236.143-.17-.536-.274.013-.052-.456-.17-.561-.366-.509-.288-1.057-.288-1.41-.131-.756-.183-1.318-.235-1.788.366-.104.929-.065 1.06-.104.85-.079 1.047.482.93.613.17.248-.066.744.17.927.183.64-.394.797-.563 1.15zm.327-5.77c-.104-.17.223-.234.118-.704.393-.692.812-1.201 1.205-1.658.222.326.274 2.52.431 4.868-.365.08-.812.066-1.216.091-.59-1.76.26-2.766-.538-2.597zm1.088 4.204a.97.97 0 0 1-.329-.328c.014-.234 0-.508.014-.678.628-.065.655 0 1.008 0-.197.314-.406.666-.693 1.006z"/>
            <path fill="#FFF" d="M17.215 46.406a4.534 4.534 0 0 1-.412-.358c-1.072-1.07-.922-2.008-.484-2.445.544-.541 1.694-.704 3.065.18l-.485.769c-.814-.564-1.393-.541-1.7-.235-.252.251-.183.73.252 1.164.13.13.246.225.33.296l-.566.63zM21.977 46.348c.128.166 1.746 1.885 1.89 2.047l-.02.046c-.232.069-2.687.652-2.786.67.194.194.933.91 1.037.989l-.609.58c-.08-.081-1.88-1.94-2.024-2.083l.016-.049c.383-.08 2.643-.62 2.832-.665-.11-.11-.827-.883-.922-.977l.586-.558zM25.457 54.635c-.118-.118-1.266-1.327-1.437-1.497.184-.162.883-.86.959-.935l.438-.438c.052-.052.834-.844.926-.94a74.157 74.157 0 0 0 1.462 1.339l-.527.55c-.12-.12-.65-.616-.71-.674l-.432.43c.066.065.459.424.615.554l-.513.531c-.088-.088-.51-.534-.582-.606l-.39.389c.086.084.573.583.74.723l-.55.574zM29.616 58.768c-.127-.101-.258-.205-.412-.359-1.072-1.069-.921-2.008-.484-2.444.544-.542 1.695-.704 3.065.179l-.484.77c-.815-.565-1.393-.541-1.7-.235-.253.251-.184.73.25 1.163.132.13.246.225.331.297l-.566.629zM32.088 61.18c.15-.136.92-.896 1.005-.98l.353-.353c.056-.055.886-.903.958-.987l.769.766c-.066.052-.707.671-.766.73l-.13.13.912.786.137-.137c.056-.056.602-.613.668-.691l.761.76c-.081.075-1.007.977-1.085 1.055l-.327.326c-.043.043-.853.864-.91.933l-.762-.76c.115-.108.655-.626.717-.688l.248-.247-.913-.786-.117.118a57.99 57.99 0 0 0-.759.782l-.759-.757zM39.575 65.883c.124.124.961.94 1.017.982l-.73.726c-.065-.09-1.108-1.117-1.176-1.186l-.269-.268a34.46 34.46 0 0 0-.886-.85c.448-.447.91-.893 1.242-1.148.547-.42.998-.492 1.299-.192.269.267.307.64.232 1.073.21.012 1.217.019 1.406.038l-.147 1.047c-.2-.049-1.753-.333-1.985-.388.059-.228.111-.639-.108-.857-.154-.154-.408-.193-.765.156l.87.867zM45.458 62.079c-.118.117-1.331 1.262-1.501 1.43-.164-.182-.863-.88-.939-.954l-.438-.437a129.56 129.56 0 0 0-.945-.922 74.084 74.084 0 0 0 1.344-1.458l.553.526c-.12.12-.618.648-.677.707l.432.43c.065-.065.425-.457.555-.613l.534.512c-.089.088-.537.508-.609.58l.39.388c.084-.085.585-.57.725-.737l.576.548zM47.56 59.918c-.136-.144-.918-.936-1.15-1.168l-.36-.358c-.075-.075-.762-.74-.811-.789.624-.622 1.04-1.004 1.377-1.21.408-.244.89-.338 1.258.03.426.424.492 1.278-.17 2.198l.089.087c.065.066.422.421.497.483l-.73.727zm-.317-1.758c.16-.218.252-.635-.02-.905-.182-.183-.428-.239-.804.084l.824.821zM50.595 53.874c.524.521.786.73 1.057.753a.493.493 0 0 0 .395-.16.47.47 0 0 0 .138-.443c-.046-.222-.177-.365-.92-1.106l-.123-.124c-.226-.224-.465-.436-.589-.554l.749-.746c.072.072.323.316.582.573l.15.15c.629.627.978 1.047 1.027 1.592.043.44-.15.88-.513 1.242-.268.267-.713.619-1.325.505-.399-.079-.696-.264-1.49-1.056l-.177-.176c-.151-.15-.42-.424-.494-.5l.762-.758c.071.097.251.29.549.586l.222.222zM54.248 50.115a24.455 24.455 0 0 0-.765-.73c.474-.472.726-.717 1.05-.968.765-.594 1.128-.414 1.311-.232.122.12.258.388.072.893l.02.02c.268-.183.706-.32 1.02-.007.37.369.255 1.24-.82 2.318l-.312.31c-.163-.195-1.151-1.18-1.213-1.242l-.363-.362zm.916-.443c.14-.14.238-.5 0-.737-.216-.215-.491-.02-.615.124l.615.613zm.955.952c.18-.18.307-.594.12-.78-.212-.211-.542-.09-.758.144l.638.636zM58.209 44.674c.072.079.732.764 1.144 1.174l.599.596c.078-.078.464-.463.712-.736l.612.603c-.078.078-1.246 1.177-1.508 1.438-.163-.183-.863-.88-.941-.959l-.435-.434a60.02 60.02 0 0 0-.949-.918l.766-.764zM63.01 42.549c.326.325.922.9 1 .971l-.759.757c-.137-.15-.9-.917-.984-1.001l-.353-.352c-.056-.056-.906-.884-.984-.962l.758-.756c.056.062.576.6.968.99l.353.353zM67.915 39.68a4.54 4.54 0 0 1-.36.411c-1.073 1.069-2.015.92-2.453.482-.542-.54-.706-1.688.18-3.054l.772.482c-.566.812-.543 1.39-.236 1.696.253.25.733.182 1.168-.251.13-.13.225-.245.297-.33l.632.564zM23.111 28.31c-1.18-1.174-2.684-1.082-3.959.19-1.58 1.575-1.219 3.428-.184 4.457.858.854 2.464 1.184 3.899-.237 1.793-1.79 1.052-3.605.244-4.41zm-2.918 3.264c-.653-.651-.89-1.569-.279-2.178.513-.513 1.236-.433 1.923.26.793.8.837 1.6.259 2.179-.44.437-1.184.454-1.903-.261zM26.452 27.368l-.145-.144c1.082-1.507.973-2.905.276-3.599-.605-.603-1.393-.447-2.061-.046-.552.336-1.232.962-2.254 1.982.08.08 1.205 1.168 1.329 1.29l.59.588c.38.378 1.661 1.675 1.886 1.91l1.194-1.191a25.91 25.91 0 0 1-.815-.79zm-2.25-2.241c.613-.529 1.016-.439 1.316-.14.445.443.295 1.127.034 1.485l-1.35-1.345zM17.85 35.847l-.638-.635c.118-.118.852-.807.997-.951l-.874-.838c-.214.256-.803.898-.91 1.004l-.707-.703c.096-.097.91-.963 1.107-1.16l-.906-.859c-.18.214-1.9 2.089-2.2 2.388.162.15 1.465 1.424 1.549 1.51l.719.715c.123.123 1.27 1.264 1.538 1.563.279-.278 2.264-2.153 2.457-2.345l-.943-.897c-.23.272-1.05 1.069-1.189 1.208zM31.574 21.977c-.406.45-1.038 1.08-1.167 1.208l-.98-.977c-.675-.672-1.759-1.792-1.877-1.92l-1.252 1.25c.113.09 1.47 1.419 1.556 1.504l.71.71c.13.128 1.277 1.27 1.545 1.568.428-.426 2.339-2.228 2.468-2.356l-1.003-.987zM13.868 39.928l-.144-.144c1.08-1.506.972-2.905.276-3.599-.605-.602-1.393-.447-2.063-.046-.55.337-1.23.962-2.253 1.982.08.08 1.206 1.17 1.33 1.291l.59.587c.38.38 1.66 1.676 1.885 1.91l1.194-1.191a28.14 28.14 0 0 1-.815-.79zm-2.25-2.24c.615-.53 1.017-.439 1.317-.14.445.443.295 1.126.033 1.484l-1.35-1.344zM31.192 19.708l.72.715c.122.123 1.27 1.265 1.537 1.564.278-.278 2.264-2.153 2.457-2.346l-.943-.896c-.23.272-1.05 1.069-1.19 1.207l-.637-.635c.119-.117.852-.807.996-.95l-.874-.838a30.17 30.17 0 0 1-.91 1.004l-.707-.705c.096-.095.91-.96 1.108-1.158l-.905-.859c-.183.213-1.9 2.088-2.2 2.388.16.15 1.462 1.424 1.548 1.51zM41.298 18.86l.08.027a412.64 412.64 0 0 1 1.977-1.787c.829-.733 1.674-1.483 2.123-1.868L44.41 14.12c-.235.224-1.651 1.674-1.945 1.968-.049-.325-.473-3.335-.68-4.648l-.085-.021c-.765.658-3.63 3.27-4.042 3.617l1.058 1.125c.17-.182 1.71-1.734 1.93-1.953.015.144.424 3.597.652 4.653zM52.656 28.196c-.274-.229-1.073-1.044-1.213-1.183l.636-.636c.118.118.811.847.955.991l.84-.872c-.258-.213-.902-.8-1.01-.906l.707-.706c.096.096.965.906 1.163 1.103l.86-.905a120.26 120.26 0 0 1-2.398-2.189c-.15.16-1.427 1.46-1.513 1.547l-.714.717c-.124.123-1.268 1.268-1.567 1.536.279.276 2.163 2.253 2.357 2.445l.897-.942zM47.21 20.722c.016.144.424 3.599.652 4.655l.08.026c.364-.331 1.16-1.054 1.978-1.787.828-.733 1.673-1.482 2.122-1.868l-1.068-1.114c-.235.225-1.652 1.675-1.945 1.97-.049-.326-.474-3.336-.68-4.65l-.085-.021c-.765.659-3.63 3.27-4.041 3.618l1.056 1.124c.171-.182 1.711-1.733 1.93-1.953zM38.086 12.243l.577-.58a97.668 97.668 0 0 1 1.624-1.583l-1.244-1.235c-.128.128-1.486 1.519-1.577 1.61l-.577.578c-.139.139-1.396 1.385-1.641 1.61l1.246 1.236c.117-.128 1.058-1.102 1.592-1.636zM56.204 31.718c-.274-.23-1.074-1.045-1.213-1.183l.636-.637c.118.118.811.848.955.991l.84-.872a26.992 26.992 0 0 1-1.01-.905l.707-.706c.096.096.965.905 1.164 1.102l.86-.904c-.214-.18-2.099-1.89-2.398-2.189-.15.161-1.428 1.46-1.513 1.547l-.716.716c-.124.123-1.267 1.268-1.566 1.536.28.277 2.163 2.254 2.356 2.445l.898-.941zM62.569 35.084c.432-.434.892-1.427-.323-3.016-.429-.565-.977-1.162-1.964-2.142-.13.17-1.304 1.359-1.417 1.47l-.663.664c-.144.145-1.481 1.461-1.748 1.686 1.734 1.721 4.432 3.023 6.115 1.338zm-1.935-3.104c.607.603 1.1 1.391.47 2.024-.748.748-1.852.409-2.463-.027l1.993-1.997z"/>
        </g>
    </g>
</svg>
