<svg xmlns="http://www.w3.org/2000/svg" width="198" height="50" viewBox="0 0 198 50">
    <g fill="none" fill-rule="evenodd">
        <path fill="#F9F7F7" d="M0 0h198v50H0z"/>
        <g fill-rule="nonzero" opacity=".5" style="mix-blend-mode:luminosity">
            <path fill="#F58220" d="M0 0h50v50H0z"/>
            <path fill="#FFF" d="M15.107 38.525L9.388 28.243l.095 10.273H5.738V21.31h3.738l5.726 10.274-.095-10.274h3.745v17.211h-3.745zM24.133 38.525h-3.641V21.31h5.804c4.597 0 6.184 2.112 6.099 5.393-.078 2.942-1.168 3.764-2.965 4.636l4.177 7.182h-4.26L25.9 32.074h-1.768v6.448l.002.003zm0-9.777h2.48c1.616 0 1.822-1.093 1.822-2.042 0-.949-.206-2.042-1.823-2.042h-2.479v4.086-.002zM41.351 21.311c2.08 0 3.013.371 3.731.652v3.499a8.164 8.164 0 0 0-3.348-.662c-2.918 0-4.258 1.134-4.258 5.539 0 4.404 1.34 5.54 4.258 5.54a8.164 8.164 0 0 0 3.348-.663v3.481c-.718.279-1.651.647-3.731.647-5.239 0-7.724-2.479-7.744-9.016.02-6.535 2.507-9.017 7.744-9.017z"/>
            <path fill="#231F20" d="M67.213 21.314v9.834h-1.135l-5.172-7.996.107 7.996h-1.177v-9.834h1.177l5.118 7.88-.053-7.883h1.135zM74.555 31.967c-2.974 0-4.883-2.17-4.883-5.328 0-3.762 2.504-5.328 4.925-5.328 2.739 0 4.911 1.926 4.911 5.229 0 3.052-1.715 5.427-4.953 5.427zm.042-9.563c-2.463 0-3.513 1.968-3.513 4.251 0 2.125 1.011 4.251 3.528 4.251 2.628 0 3.5-2.262 3.486-4.35-.015-2.448-1.246-4.143-3.5-4.143l-.001-.009zM84.092 26.967v4.17h-1.305V21.31h3.715c1.39.016 2.212.016 2.991.6.738.544 1.05 1.365 1.05 2.269 0 2.3-1.885 2.62-2.368 2.703l2.809 4.265h-1.589l-2.723-4.17h-2.58v-.011zm0-1.086h2.651a5.07 5.07 0 0 0 1.22-.097c.923-.22 1.249-.878 1.249-1.589a1.741 1.741 0 0 0-.596-1.378c-.525-.439-1.178-.42-1.944-.42h-2.58v3.484zM103.546 21.311h1.372l-3.056 9.837h-1.3l-2.631-8.149-2.544 8.149h-1.336l-3.067-9.837h1.398l2.361 8.151 2.53-8.15h1.301l2.629 8.15zM108.721 26.662v3.342h6.033v1.144h-7.377V21.31h7.2v1.157h-5.856v3.037h5.087v1.157h-5.087zM125.408 26.355v5.354h-1.153v-1.422c-.84 1.235-2.307 1.68-3.672 1.68-3.103 0-5.01-2.195-5.01-5.2 0-2.585 1.539-5.455 5.196-5.455a5.144 5.144 0 0 1 3.502 1.292 5.319 5.319 0 0 1 1.139 1.637l-1.381.373a3.255 3.255 0 0 0-.698-1.192c-.399-.432-1.195-.99-2.517-.99-2.819 0-3.772 2.354-3.772 4.192 0 1.908.982 4.163 3.715 4.163 1.238 0 3.543-.617 3.503-3.302h-3.52v-1.13h4.668zM129.508 21.311v9.837h-1.64V21.31zM137.623 28.139h-3.887l-1.138 3.009h-1.45l3.888-9.837h1.417l3.71 9.837h-1.429l-1.111-3.01zm-.403-1.098l-1.49-4.095-1.561 4.095H137.22zM148.36 21.314v9.834h-1.134l-5.173-7.996.107 7.996h-1.176v-9.834h1.176l5.119 7.88-.053-7.883h1.135zM61.14 43.36v4.17h-1.304v-9.825h3.715c1.39.013 2.212.013 2.992.599.737.544 1.05 1.365 1.05 2.271 0 2.298-1.886 2.619-2.368 2.704l2.808 4.262h-1.589l-2.723-4.17h-2.58v-.01zm0-1.086h2.653c.409.017.818-.016 1.22-.099.922-.22 1.248-.878 1.248-1.586a1.741 1.741 0 0 0-.596-1.38c-.525-.44-1.178-.418-1.944-.418h-2.58v3.483zM71.018 43.056V46.4h6.031v1.141h-7.377v-9.836h7.198v1.157h-5.852V41.9h5.086v1.156h-5.086zM80.057 42.917v4.624h-1.368v-9.836h6.557v1.168h-5.189v2.908h4.835v1.136zM94.262 37.711v6.124c.004.42-.037.838-.124 1.249-.275 1.152-1.361 2.457-3.634 2.457-.715 0-2.064-.11-2.986-1.283-.65-.813-.633-1.534-.633-2.607v-5.946h1.301v5.775c-.013.883-.013 1.63.497 2.239.577.706 1.43.746 1.817.746 1.143 0 2.038-.543 2.327-1.587.097-.469.139-.948.123-1.426v-5.74H94.262zM106.555 42.748v5.355h-1.153v-1.42c-.84 1.232-2.305 1.678-3.67 1.678-3.104 0-5.01-2.196-5.01-5.201 0-2.585 1.535-5.454 5.195-5.454a5.133 5.133 0 0 1 3.501 1.291c.48.467.866 1.022 1.14 1.635l-1.382.373a3.28 3.28 0 0 0-.698-1.192c-.399-.432-1.195-.99-2.518-.99-2.819 0-3.772 2.354-3.772 4.192 0 1.909.982 4.163 3.716 4.163 1.238 0 3.546-.617 3.503-3.301h-3.521v-1.13h4.67v.001zM110.36 43.056V46.4h6.033v1.141h-7.377v-9.836h7.2v1.157h-5.856V41.9h5.088v1.156h-5.088zM119.377 43.056V46.4h6.033v1.141h-7.377v-9.836h7.2v1.157h-5.856V41.9h5.085v1.156h-5.085zM140.984 44.426c-.427 1.926-2.03 3.935-4.94 3.935-3.307 0-4.896-2.514-4.896-5.328 0-2.873 1.632-5.328 5.082-5.328s4.315 2.427 4.557 3.102l-1.342.287a2.953 2.953 0 0 0-.595-1.131 3.295 3.295 0 0 0-2.625-1.177 3.44 3.44 0 0 0-2.754 1.279c-.64.803-.839 1.866-.839 2.9 0 2.513 1.264 4.28 3.578 4.28 1.491 0 3.01-.848 3.322-2.986l1.452.167zM147.506 48.36c-2.972 0-4.883-2.169-4.883-5.327 0-3.763 2.504-5.328 4.925-5.328 2.739 0 4.911 1.923 4.911 5.228-.002 3.043-1.717 5.428-4.953 5.428zm.042-9.556c-2.463 0-3.513 1.969-3.513 4.251 0 2.125 1.009 4.251 3.528 4.251 2.628 0 3.5-2.262 3.486-4.35-.017-2.464-1.248-4.152-3.501-4.152zM162.295 37.711v6.124c.005.42-.037.838-.124 1.249-.275 1.152-1.364 2.457-3.634 2.457-.716 0-2.064-.11-2.986-1.283-.65-.813-.633-1.534-.633-2.607v-5.946h1.301v5.775c-.013.883-.013 1.63.497 2.239.579.706 1.43.746 1.817.746 1.142 0 2.036-.543 2.326-1.587.098-.469.14-.948.124-1.426v-5.74h1.312zM172.131 37.705v9.836h-1.138l-5.185-7.997.107 7.997h-1.16v-9.836h1.177l5.124 7.885-.052-7.885h1.127zM185.246 44.426c-.427 1.926-2.03 3.935-4.94 3.935-3.306 0-4.896-2.514-4.896-5.328 0-2.873 1.632-5.328 5.08-5.328 3.448 0 4.315 2.427 4.557 3.102l-1.342.287a2.952 2.952 0 0 0-.597-1.131 3.295 3.295 0 0 0-2.625-1.177 3.438 3.438 0 0 0-2.752 1.279c-.64.803-.839 1.866-.839 2.9 0 2.513 1.264 4.28 3.578 4.28 1.489 0 3.01-.848 3.32-2.986l1.456.167zM188.525 37.705v9.836h-1.64v-9.836zM192.221 46.373h4.5v1.168h-5.737v-9.836h1.243v8.668z"/>
        </g>
    </g>
</svg>
